<svg width="1890" height="177" viewBox="0 0 1890 177" fill="none" xmlns="http://www.w3.org/2000/svg">
<path d="M62.25 2.5H100.75L167.75 177H136.5L125 144.5H41L30 177H0.75L62.25 2.5ZM117 122.25L82.25 28H80.75L48.75 122.25H117ZM318.502 43.5L343.002 2.5H370.502L332.002 63.5L318.502 43.5ZM286.502 88V86.5L231.752 2.5H259.502L376.002 177H347.752L301.252 106.25L255.502 177H226.252L286.502 88ZM468.717 93.75C469.05 102.917 470.717 111.25 473.717 118.75C476.717 126.25 480.883 132.667 486.217 138C491.55 143.167 497.883 147.167 505.217 150C512.717 152.833 521.133 154.25 530.467 154.25C540.133 154.25 548.8 152.75 556.467 149.75C564.3 146.75 570.967 142.5 576.467 137C581.967 131.333 586.133 124.5 588.967 116.5C591.967 108.5 593.467 99.5833 593.467 89.75C593.467 80.25 592.05 71.6667 589.217 64C586.55 56.1667 582.633 49.5 577.467 44C572.467 38.3333 566.3 33.9167 558.967 30.75C551.633 27.5833 543.383 25.8333 534.217 25.5V-1.07288e-06C547.05 0.333328 558.717 2.74999 569.217 7.24999C579.883 11.5833 588.967 17.6667 596.467 25.5C603.967 33.1667 609.8 42.4167 613.967 53.25C618.133 64.0833 620.217 76.25 620.217 89.75C620.217 103.917 618.05 116.583 613.717 127.75C609.55 138.75 603.55 148.083 595.717 155.75C588.05 163.417 578.633 169.333 567.467 173.5C556.467 177.5 544.133 179.5 530.467 179.5C517.467 179.5 505.55 177.5 494.717 173.5C484.05 169.333 474.8 163.583 466.967 156.25C459.3 148.75 453.217 139.75 448.717 129.25C444.383 118.583 441.967 106.75 441.467 93.75H468.717ZM700.15 2.5H727.4V122.5H700.15V2.5ZM700.15 150.5H822.4V177H700.15V150.5ZM911.734 93.75C912.068 102.917 913.734 111.25 916.734 118.75C919.734 126.25 923.901 132.667 929.234 138C934.568 143.167 940.901 147.167 948.234 150C955.734 152.833 964.151 154.25 973.484 154.25C983.151 154.25 991.818 152.75 999.484 149.75C1007.32 146.75 1013.98 142.5 1019.48 137C1024.98 131.333 1029.15 124.5 1031.98 116.5C1034.98 108.5 1036.48 99.5833 1036.48 89.75C1036.48 80.25 1035.07 71.6667 1032.23 64C1029.57 56.1667 1025.65 49.5 1020.48 44C1015.48 38.3333 1009.32 33.9167 1001.98 30.75C994.651 27.5833 986.401 25.8333 977.234 25.5V-1.07288e-06C990.068 0.333328 1001.73 2.74999 1012.23 7.24999C1022.9 11.5833 1031.98 17.6667 1039.48 25.5C1046.98 33.1667 1052.82 42.4167 1056.98 53.25C1061.15 64.0833 1063.23 76.25 1063.23 89.75C1063.23 103.917 1061.07 116.583 1056.73 127.75C1052.57 138.75 1046.57 148.083 1038.73 155.75C1031.07 163.417 1021.65 169.333 1010.48 173.5C999.484 177.5 987.151 179.5 973.484 179.5C960.484 179.5 948.568 177.5 937.734 173.5C927.068 169.333 917.818 163.583 909.984 156.25C902.318 148.75 896.234 139.75 891.734 129.25C887.401 118.583 884.984 106.75 884.484 93.75H911.734ZM1122.3 2.5H1353.3C1362.14 2.5 1370.14 3.58333 1377.3 5.74998C1384.64 7.91665 1390.89 11.1667 1396.05 15.5C1401.22 19.8333 1405.22 25.4167 1408.05 32.25C1410.89 38.9167 1412.3 46.9167 1412.3 56.25C1412.3 66.75 1409.72 76.6667 1404.55 86C1399.39 95.3333 1392.22 102.417 1383.05 107.25L1379.3 109L1419.55 177H1389.8L1356.3 112.75H1310.3V177H1283.3V91.25H1349.8C1354.8 91.25 1359.55 90.5833 1364.05 89.25C1368.72 87.9167 1372.8 85.8333 1376.3 83C1379.8 80.1667 1382.55 76.6667 1384.55 72.5C1386.55 68.1667 1387.55 63 1387.55 57C1387.55 50.6667 1386.3 45.6667 1383.8 42C1381.47 38.1667 1378.47 35.3333 1374.8 33.5C1371.14 31.5 1367.05 30.25 1362.55 29.75C1358.05 29.0833 1353.72 28.75 1349.55 28.75H1122.3V2.5ZM1176.3 59.75H1203.05V177H1176.3V59.75ZM1511.25 93.75C1511.58 102.917 1513.25 111.25 1516.25 118.75C1519.25 126.25 1523.41 132.667 1528.75 138C1534.08 143.167 1540.41 147.167 1547.75 150C1555.25 152.833 1563.66 154.25 1573 154.25C1582.66 154.25 1591.33 152.75 1599 149.75C1606.83 146.75 1613.5 142.5 1619 137C1624.5 131.333 1628.66 124.5 1631.5 116.5C1634.5 108.5 1636 99.5833 1636 89.75C1636 80.25 1634.58 71.6667 1631.75 64C1629.08 56.1667 1625.16 49.5 1620 44C1615 38.3333 1608.83 33.9167 1601.5 30.75C1594.16 27.5833 1585.91 25.8333 1576.75 25.5V-1.07288e-06C1589.58 0.333328 1601.25 2.74999 1611.75 7.24999C1622.41 11.5833 1631.5 17.6667 1639 25.5C1646.5 33.1667 1652.33 42.4167 1656.5 53.25C1660.66 64.0833 1662.75 76.25 1662.75 89.75C1662.75 103.917 1660.58 116.583 1656.25 127.75C1652.08 138.75 1646.08 148.083 1638.25 155.75C1630.58 163.417 1621.16 169.333 1610 173.5C1599 177.5 1586.66 179.5 1573 179.5C1560 179.5 1548.08 177.5 1537.25 173.5C1526.58 169.333 1517.33 163.583 1509.5 156.25C1501.83 148.75 1495.75 139.75 1491.25 129.25C1486.91 118.583 1484.5 106.75 1484 93.75H1511.25ZM1744.68 2.5H1770.93L1863.43 136.25L1864.18 2.5H1889.43V177H1861.68L1744.68 2.5ZM1742.68 55.5L1768.68 93V177H1742.68V55.5Z" fill="url(#paint0_linear_5_321)" fill-opacity="0.1"/>
<defs>
<linearGradient id="paint0_linear_5_321" x1="954.614" y1="-152.043" x2="954.437" y2="177" gradientUnits="userSpaceOnUse">
<stop stop-color="white"/>
<stop offset="1" stop-color="#2A2A2A"/>
</linearGradient>
</defs>
</svg>
